<svg xmlns="http://www.w3.org/2000/svg" viewBox="0 0 172.4 120"><defs><style>.cls-1{fill-rule:evenodd;}</style></defs><title>Asset 1</title><g id="Layer_2" data-name="Layer 2"><g id="desktop_big_main"><path id="Path_1" data-name="Path 1" class="cls-1" d="M90.54,83.9v.82h3.62l.15-1.37-.82-.07-.15.62H92V82.77h2V82H92V80.85H93.3l.14.62.83-.07L94.12,80H90.54v.82h.51v3h-.51Zm-32.2,19.26-.15,1.58.82.08.15-.84h.74v3h-.72v.82h2.46V107h-.77v-3h.74l.15.84.82-.08-.14-1.58Zm-5,2-.67-.16a2.31,2.31,0,0,1-.56-.19.42.42,0,0,1-.25-.41.37.37,0,0,1,.19-.35,1,1,0,0,1,.48-.1,2.2,2.2,0,0,1,.36,0,1.24,1.24,0,0,1,.37.17l.06.54.77-.07,0-1a1.63,1.63,0,0,0-.64-.39,2.65,2.65,0,0,0-.88-.13,2.18,2.18,0,0,0-1.17.31,1.21,1.21,0,0,0-.54,1.11,1.12,1.12,0,0,0,.23.77,1.38,1.38,0,0,0,.58.37,5.2,5.2,0,0,0,.68.17,2.78,2.78,0,0,1,.68.2.52.52,0,0,1,.28.52.44.44,0,0,1-.24.46,1.66,1.66,0,0,1-.63.09l-.29,0a1.26,1.26,0,0,1-.42-.16v-.57l-.78-.07-.14,1.16a1.76,1.76,0,0,0,.75.37,3.73,3.73,0,0,0,.94.12,2.09,2.09,0,0,0,1.35-.38,1.29,1.29,0,0,0,.49-1.11,1.14,1.14,0,0,0-.29-.88A1.47,1.47,0,0,0,53.38,105.15Zm48.2-24.3.14.84.82-.07L102.4,80H98.3l-.15,1.59.82.07.15-.84h.74v3h-.72v.83h2.45v-.83h-.76v-3Zm-26,3.05v.82h2V83.9h-.51v-3h.51V80h-2v.83h.51v3Zm-22.4-3.09a2.31,2.31,0,0,1,.52.06,1.5,1.5,0,0,1,.47.19l.13.54.78-.07-.13-1a1.92,1.92,0,0,0-.69-.4,3.11,3.11,0,0,0-1-.17,2.23,2.23,0,0,0-1.8.73,2.58,2.58,0,0,0-.62,1.72,2.55,2.55,0,0,0,.58,1.7,2,2,0,0,0,1.57.69,2,2,0,0,0,.79-.15,1.72,1.72,0,0,0,.55-.41l.09.49h.75V82.94h.23v-.81H53.25v.81h.92v0a.93.93,0,0,1-.28.72,1.14,1.14,0,0,1-.76.25,1.2,1.2,0,0,1-.92-.39,2.06,2.06,0,0,1,0-2.36A1.31,1.31,0,0,1,53.19,80.81Zm-2.37,13.3h51.71v-1H50.82ZM59,83.9v.82h1.85V83.9h-.43l.19-.48h1.6l.17.48H62v.82H63.9V83.9h-.45L61.76,80H60.15v.83h.65l-1.34,3Zm2.4-2.49h0L62,82.73H60.91Zm23.73,1.4L82.8,80H81.52v.82h.59v3H81.6v.83h2.06v-.83H83V81.75h0l2.52,3h.54V80.85h.51V80H84.52v.82h.68v2ZM67.64,83.9v.82H70.1a1.54,1.54,0,0,0,1.19-.42,1.39,1.39,0,0,0,.38-1,1.22,1.22,0,0,0-.25-.79,1.12,1.12,0,0,0-.77-.4v0a1,1,0,0,0,.63-.34,1,1,0,0,0-.18-1.44,1.64,1.64,0,0,0-1-.3H67.64v.83h.51v3Zm1.47-3.05h.71a1,1,0,0,1,.45.11.42.42,0,0,1,.19.42.56.56,0,0,1-.15.41.72.72,0,0,1-.56.16h-.64Zm0,1.85h.8c.48,0,.72.2.72.59s-.26.61-.78.61h-.74Zm50.28,20.39a2.24,2.24,0,0,0-1.75.7,2.37,2.37,0,0,0-.65,1.72,2.45,2.45,0,0,0,.61,1.69,2.18,2.18,0,0,0,1.76.71,2.25,2.25,0,0,0,1.78-.71,2.6,2.6,0,0,0,0-3.4A2.2,2.2,0,0,0,119.39,103.09Zm1,3.55a1.42,1.42,0,0,1-2.07,0,1.84,1.84,0,0,1-.31-1.11,1.81,1.81,0,0,1,.32-1.11,1.2,1.2,0,0,1,1-.45,1.23,1.23,0,0,1,1,.42,1.76,1.76,0,0,1,.35,1.17A1.93,1.93,0,0,1,120.42,106.64ZM134.09,104h.5v3h-.5v.82h2V107h-.5v-3h.5v-.82h-2ZM151,107h-1.6l2.42-3.41,0-.44h-3.51l-.15,1.48.83.07.14-.73h1.27L148,107.34l0,.5h3.8l.14-1.62-.82-.07Zm-8.72-3.08a2.22,2.22,0,0,1,.51.06,1.49,1.49,0,0,1,.45.19l.1.62.79-.07-.11-1.09a2.21,2.21,0,0,0-.66-.39,2.6,2.6,0,0,0-1-.18,2.38,2.38,0,0,0-1.42.4,2.32,2.32,0,0,0-.76,1,3.12,3.12,0,0,0-.23,1.13,2.24,2.24,0,0,0,.68,1.69,2.38,2.38,0,0,0,1.68.65,3.88,3.88,0,0,0,1-.16,1.58,1.58,0,0,0,.73-.42l.1-1.1-.79-.08-.1.7a1.71,1.71,0,0,1-.89.2,1.41,1.41,0,0,1-1-.37,1.57,1.57,0,0,1-.39-1.19,1.7,1.7,0,0,1,.36-1.17,1.21,1.21,0,0,1,1-.39Zm16.5,0h.67v2h0L157,103.16h-1.28V104h.59v3h-.51v.82h2.06V107h-.66v-2.15h0l2.52,3h.54V104h.51v-.82h-2.09V104Zm8.48,0h.45l-.78,1.18h0l-.79-1.18h.39v-.82h-1.94V104H165l1.41,2v1h-.72v.82h2.45V107h-.76v-1l1.36-2h.41v-.82h-1.85V104Zm4-59.19c-.64-.21-3.65,1.39-5.93,1.39a9.8,9.8,0,0,1-8.59-4.93c6.13-3.62,5.12-9.69-.84-12s-8.07,5.82-5,9.68c-.05.17.81.81.44,1-2.61-.1-3.44-.84-7.71-.31-2.65.34-6.84,3.26-10.53,3.84a2.82,2.82,0,0,1-1.32-.37c-1.38-1.1-.15-7.36-2.27-7.81a1.65,1.65,0,0,0-1.31.3c-4.76,6.06-11.33,12-13.42,10.4s-3.38-6.54-3.44-9.43c1-1.66,3.94-5.54,7.24-16.91,1.58-5.52,4-19.19-.94-19.69h-.4a1.89,1.89,0,0,0-.4.08,2.85,2.85,0,0,0-.79.37A6.34,6.34,0,0,0,114.55,2a22.42,22.42,0,0,0-2.79,5.58,55.84,55.84,0,0,0-3,15.88c-.41,10.75.13,11.38-.16,12.06-.91,2.22-6.39,9.06-7.79,9.72-4.24-6-10.55-1.56-12.47,3-3.64,1.37-7.43-8.36-11.44,1.69-.38-3.13-.18-3.65-.91-4.28s-2-1.07-2.46-.75a66.66,66.66,0,0,1-3.41,7.26C66.75,57.88,61.48,64.27,58,60.37c-2.06-2.3-2.57-6.44-2-7.11s1-1.13,2.21-2.43c3.18-3.53,6.57-8.58,4.69-10.34-3.19-3-7.54,1.37-9.32,6.13a16,16,0,0,0-.85,5.82c-1.66,1.36-3.47,2.75-5.11,4.14-1.28-.73-3.71-4.08-5.87-6.89-1.68-2.19-3-4.2-2.49-5.3a99.56,99.56,0,0,0,5.56-11.07c3.51-9.1,6.9-20.16,1.18-22.06C42.3,12,38.53,15.63,36,20.49s-3.71,10.91-2.56,16c1.4,6.21,1.66,5.23,2.58,8.33C34.63,47,26.74,58.34,25.35,59.62c-1.81-11.43-3-27.64-2.84-28.34.88-5.82,2.89-13.24,4.1-18.89.33-1.53-.67-1.82-2-2-4.34,6-4.07,14.47-5.23,22.9-1.35,9.61-3.58,19-5.59,28.1q-.86,4.2-1.67,8.39c-1.83,1.29-5.58,3.87-5.61,4s-.27.39,1.82,1.2c.4.16,2.42-1.66,2.66-1.52C7.27,88,4.45,101.81.42,115.66c-.71,1.81-.65,4.09,1.23,4.34a169.87,169.87,0,0,0,4.8-16.54c2.16-8.45,4.67-19.31,7.69-31.6,1.59-1.35,3.16-2.45,5.15-3.89a38.46,38.46,0,0,1,4.23-3c1.78,9.24,2.77,19.55,4.55,29a1.69,1.69,0,0,0,2.38-.06,1.48,1.48,0,0,0,.25-.35C30,86.77,26.65,69.35,25.84,63.2A142.17,142.17,0,0,0,37.31,47c.87,2.17,6.44,9.22,8.12,11.29l-.12.17C38.09,63.13,34.4,65.6,32.6,66.84c-1.54,1.08-1.71,1.22-1.31,2.11a20.42,20.42,0,0,0,5.55,1.37c6.25.89,14.85,1.08,15.56-4.68.24-3.46-1.83-4.8-3-6.68a25.64,25.64,0,0,1,3.78-2.85,10.76,10.76,0,0,0,1.78,4c3.78,5.09,8.32,4.3,11.58,1.41,2.3-2.06,6-9.23,7.79-11.92.7,2.67,1.86,7.22,2.39,7.91,1.15,1.49,1.9,1.53,1.86,0-.06-2.59-.64-7.31,1.25-9,1.74-1.54,5.66,2,8.73,2.29a6.85,6.85,0,0,0,.73,1.52c2.93,4.31,7.52,1,9.5-.86a63,63,0,0,0,5.27-5.19c1.85-2.22,3.47-4.35,5.13-6.57A16.56,16.56,0,0,0,111.94,46a6.19,6.19,0,0,0,8.5,1.88c3.55-2.1,6.8-7.14,8-7.4a8.33,8.33,0,0,0,2.92,5c3.2,2,6.63-1.38,12.1-2.88,1.92-.53,3.86-.17,6.81.15,2.21.24,2.51-.68,3.33-.17.52.32,2.3,2,3.8,3.22a15.7,15.7,0,0,0,6.84,2.62c5.13.76,7.94-1.8,8.19-2.21-.13-.19-1-1.3-1.11-1.48Zm-113.6.08c.77-1.3,1.69-2.73,2.85-2.46.53.12-.28,1.15-1.2,2.42a30.67,30.67,0,0,1-3.1,3.9c-.26-.39.67-2.56,1.45-3.86Zm-35,17.31c-3.23,2.44-5.51,3.95-7.61,5.75-.09-.17-.09-.41.52-3.79s1.87-9.89,4.88-22.49C20.72,41.78,23.07,61.79,22.72,62.18Zm15-20.84c-5.6-10.29.75-23.6,7.5-27.74,2.16-1.4,1.73,7.32-.94,15.43a40.33,40.33,0,0,1-6.4,12.43l-.16-.11ZM39,68.7c-1.87-.13-3.22-.28-3.29-.7-.15-.89,7-4.68,11.84-7.84,6.29,7.32-1,9.08-8.55,8.55Zm52.29-17c-.71-.62-.18-3.11,1.27-5.07s4.75-3.3,5.81-1.26C99.6,47.79,93.46,53.6,91.27,51.67Zm20.63-33.9c1-6.3,2.91-12.58,5.57-15,2.3-2.25-.13,18.72-6.6,29.64C110.58,30.35,110.83,24.05,111.9,17.77Zm42,20.78c-2.66-3.11-1.53-5.68,1-7,2-.06,2.93.89,3.21,2.91A5,5,0,0,1,153.86,38.55ZM128,106.08H129v0a.93.93,0,0,1-.28.72,1.14,1.14,0,0,1-.76.25,1.18,1.18,0,0,1-.92-.39,2.06,2.06,0,0,1,0-2.36,1.28,1.28,0,0,1,1-.39,2.32,2.32,0,0,1,.52.07,1.28,1.28,0,0,1,.47.18l.13.55.78-.07-.13-1a1.92,1.92,0,0,0-.69-.4,3.09,3.09,0,0,0-1-.16,2.23,2.23,0,0,0-1.8.72,2.61,2.61,0,0,0-.62,1.73,2.52,2.52,0,0,0,.58,1.69,2.1,2.1,0,0,0,2.36.53,1.47,1.47,0,0,0,.55-.41l.1.5h.75v-1.78h.22v-.81H128v.82ZM87.5,103.16H85.89V104h.66l-1.35,3h-.42v.82h1.84V107h-.43l.19-.48H88l.17.48h-.38v.82h1.86V107h-.44Zm-.85,2.7.53-1.32h0l.49,1.32Zm6.29-2.7-.14,1.58.82.08.14-.84h.75v3h-.73v.82h2.46V107h-.77v-3h.75l.14.84.82-.08L97,103.16ZM78,106.06h0l-1.67-2.9H75V104h.57v3H75v.82h1.85V107h-.45v-1.88h0l1.33,2.32h.41l1.23-2.23h0V107H79v.83h1.88V107h-.51v-3H81v-.83h-1.4Zm25.35-3a2.24,2.24,0,0,0-1.75.7,2.37,2.37,0,0,0-.65,1.72,2.45,2.45,0,0,0,.61,1.69,2.18,2.18,0,0,0,1.76.71,2.25,2.25,0,0,0,1.78-.71,2.6,2.6,0,0,0,0-3.4A2.21,2.21,0,0,0,103.38,103.09Zm1,3.55a1.42,1.42,0,0,1-2.07,0,1.92,1.92,0,0,1-.32-1.11,1.88,1.88,0,0,1,.33-1.11,1.2,1.2,0,0,1,1-.45,1.23,1.23,0,0,1,1,.42,1.82,1.82,0,0,1,.35,1.17A1.93,1.93,0,0,1,104.41,106.64Zm-35.63-3.55a2.25,2.25,0,0,0-1.76.7,2.42,2.42,0,0,0-.65,1.72A2.5,2.5,0,0,0,67,107.2a2.18,2.18,0,0,0,1.76.71,2.25,2.25,0,0,0,1.78-.71,2.6,2.6,0,0,0,0-3.4A2.19,2.19,0,0,0,68.78,103.09Zm1,3.55a1.4,1.4,0,0,1-2.06,0,1.92,1.92,0,0,1-.32-1.11,1.81,1.81,0,0,1,.32-1.11,1.2,1.2,0,0,1,1-.45,1.23,1.23,0,0,1,1,.42,1.76,1.76,0,0,1,.35,1.17,1.79,1.79,0,0,1-.32,1.12Zm42.51.38h-1.23v-3h.66v-.82h-2.13V104h.5v3h-.5v.82h3.52l.14-1.65-.82-.08Z"/></g></g></svg>